<?xml version="1.0" standalone="no"?>
<!DOCTYPE svg PUBLIC "-//W3C//DTD SVG 20010904//EN"
 "http://www.w3.org/TR/2001/REC-SVG-20010904/DTD/svg10.dtd">
<svg version="1.0" xmlns="http://www.w3.org/2000/svg"
 width="1280.000000pt" height="640.000000pt" viewBox="0 0 1280.000000 640.000000"
 preserveAspectRatio="xMidYMid meet">
<metadata>
Created by potrace 1.15, written by Peter Selinger 2001-2017
</metadata>
<g transform="translate(0.000000,640.000000) scale(0.100000,-0.100000)"
fill="#000000" stroke="none">
<path d="M5475 6233 c-151 -13 -478 -58 -515 -70 -67 -22 -126 -59 -153 -96
-13 -17 -35 -66 -47 -107 -13 -41 -26 -78 -29 -81 -3 -4 -34 -10 -68 -13 l-63
-7 0 48 c0 26 -4 53 -8 58 -4 7 -32 9 -72 5 l-65 -5 -1 -114 c-1 -62 -6 -116
-11 -120 -9 -6 -10 -25 -4 -81 2 -23 3 -24 11 -5 7 16 9 12 9 -18 l1 -38 83 3
c79 3 82 4 85 28 6 49 9 52 41 36 48 -26 68 -60 85 -153 22 -118 42 -155 134
-246 130 -127 154 -188 177 -443 15 -167 32 -234 67 -258 18 -13 13 -14 -39
-9 -97 9 -133 -24 -140 -130 -8 -123 -9 -185 -1 -181 11 7 10 0 -7 -43 -22
-58 -45 -162 -46 -218 -1 -44 -2 -46 -9 -20 -5 20 -8 -8 -9 -81 -1 -89 4 -132
25 -215 14 -57 35 -117 47 -134 11 -16 -18 6 -64 50 -90 84 -198 155 -237 155
-33 0 -137 -55 -161 -86 -24 -30 -27 -80 -8 -109 8 -11 22 -33 33 -50 18 -30
18 -30 -2 -13 -19 16 -21 16 -51 -10 -17 -15 -36 -38 -44 -52 -16 -31 -28
-198 -14 -204 6 -3 -2 -5 -16 -5 -29 -1 -78 14 -734 226 -591 191 -564 183
-597 183 -23 0 -28 -5 -28 -23 0 -13 -7 -32 -15 -43 -8 -10 -15 -33 -15 -50 0
-17 -9 -43 -20 -57 -12 -14 -20 -40 -20 -61 0 -25 -6 -40 -20 -48 -12 -8 -20
-24 -21 -43 -1 -27 -2 -28 -8 -6 -6 22 -7 21 -25 -15 -42 -86 -123 -304 -113
-304 6 0 8 -2 5 -5 -2 -3 -112 -21 -244 -40 -131 -20 -277 -45 -324 -57 -356
-87 -589 -295 -699 -623 -12 -33 -19 -46 -16 -30 4 26 2 25 -19 -15 -13 -25
-20 -47 -14 -49 5 -2 -4 -12 -21 -22 -52 -31 -110 -149 -112 -228 0 -22 -2
-23 -8 -7 -6 15 -13 6 -36 -45 -58 -127 -32 -249 68 -317 107 -73 249 -85 469
-39 70 15 158 27 195 27 127 0 215 -65 268 -197 82 -205 144 -302 266 -417 60
-57 104 -87 172 -121 117 -57 186 -75 322 -82 244 -12 447 58 615 214 70 64
117 126 182 238 72 124 112 171 172 200 75 36 138 39 547 26 195 -6 505 -16
689 -21 666 -20 2986 -87 3220 -93 189 -4 220 -22 359 -202 125 -161 238 -253
389 -315 107 -45 216 -63 337 -57 129 7 206 27 330 87 126 61 206 127 327 272
173 207 208 217 638 191 282 -17 414 -11 545 23 140 37 249 115 299 216 28 56
34 94 14 82 -7 -4 10 18 38 49 80 88 99 164 69 280 -20 78 -58 150 -108 204
-48 52 -84 73 -127 73 -16 0 -30 2 -30 5 0 2 13 37 29 77 138 349 208 683 198
953 -10 275 -75 449 -230 611 -160 170 -376 265 -712 315 -115 18 -580 18
-725 1 -340 -41 -924 -116 -1025 -132 -33 -5 -123 -19 -200 -30 -169 -26 -396
-62 -603 -96 -84 -14 -165 -26 -180 -26 -15 0 -93 30 -174 67 l-148 68 0 33
c0 43 -30 74 -70 74 -28 0 -29 1 -18 25 15 34 -9 86 -51 111 l-31 18 27 21
c21 18 25 27 19 49 -4 16 -16 30 -27 33 -16 4 -19 11 -15 29 3 13 9 35 12 49
5 19 -1 32 -24 55 -17 16 -39 30 -50 30 -27 0 -77 -43 -91 -79 l-12 -29 -142
-5 c-187 -7 -214 -16 -296 -92 -78 -72 -150 -129 -156 -123 -3 2 -8 22 -13 43
-12 58 -32 65 -84 28 -24 -17 -55 -48 -70 -70 -22 -32 -55 -54 -175 -118 -178
-94 -225 -104 -271 -59 -37 38 -65 114 -95 257 -27 132 -41 158 -99 188 -35
18 -54 21 -117 17 -49 -3 -91 -12 -119 -26 -35 -17 -43 -18 -38 -6 23 60 12
122 -27 149 -36 25 -81 18 -171 -29 l-84 -45 -5 25 c-3 16 0 24 10 24 21 0
138 121 161 166 39 77 47 140 42 304 -2 85 -5 220 -5 300 0 143 0 146 34 220
18 41 44 102 57 135 12 33 23 56 23 51 1 -5 8 -3 15 4 17 13 87 11 97 -4 7 -9
145 7 156 18 6 5 -18 185 -39 304 -11 60 -12 62 -42 62 -17 0 -48 -3 -70 -7
l-38 -6 6 -54 c7 -60 8 -59 -69 -66 l-51 -4 -27 78 c-38 105 -89 164 -158 178
-27 6 -55 10 -62 9 -7 -1 -30 -3 -52 -5z"/>
<path d="M7457 4943 c-20 -5 -18 -25 4 -31 12 -3 12 -2 0 7 -24 16 27 24 79
12 25 -6 59 -10 75 -10 17 1 -1 7 -40 14 -75 14 -90 15 -118 8z"/>
<path d="M7518 4893 c7 -3 16 -2 19 1 4 3 -2 6 -13 5 -11 0 -14 -3 -6 -6z"/>
<path d="M7758 4873 c7 -3 16 -2 19 1 4 3 -2 6 -13 5 -11 0 -14 -3 -6 -6z"/>
<path d="M7708 4843 c7 -3 16 -2 19 1 4 3 -2 6 -13 5 -11 0 -14 -3 -6 -6z"/>
<path d="M7778 4823 c7 -3 16 -2 19 1 4 3 -2 6 -13 5 -11 0 -14 -3 -6 -6z"/>
<path d="M7920 4820 c8 -5 22 -9 30 -9 10 0 8 3 -5 9 -27 12 -43 12 -25 0z"/>
<path d="M7848 4803 c7 -3 16 -2 19 1 4 3 -2 6 -13 5 -11 0 -14 -3 -6 -6z"/>
<path d="M7925 4780 c27 -12 43 -12 25 0 -8 5 -22 9 -30 9 -10 0 -8 -3 5 -9z"/>
<path d="M8030 4782 c8 -5 26 -13 40 -16 17 -5 20 -4 10 2 -8 5 -26 13 -40 16
-17 5 -20 4 -10 -2z"/>
<path d="M7985 4760 c27 -12 43 -12 25 0 -8 5 -22 9 -30 9 -10 0 -8 -3 5 -9z"/>
<path d="M8110 4751 c23 -15 127 -54 115 -43 -9 8 -77 37 -115 49 -13 4 -13 3
0 -6z"/>
<path d="M8045 4740 c27 -12 43 -12 25 0 -8 5 -22 9 -30 9 -10 0 -8 -3 5 -9z"/>
<path d="M8234 4669 c54 -22 100 -38 102 -36 5 4 -177 77 -191 76 -6 0 34 -18
89 -40z"/>
<path d="M8310 4665 c14 -8 30 -14 35 -14 6 0 -1 6 -15 14 -14 8 -29 14 -35
14 -5 0 1 -6 15 -14z"/>
<path d="M8381 4636 c2 -2 15 -9 29 -15 24 -11 24 -11 6 3 -16 13 -49 24 -35
12z"/>
<path d="M8410 4595 c14 -8 30 -14 35 -14 6 0 -1 6 -15 14 -14 8 -29 14 -35
14 -5 0 1 -6 15 -14z"/>
<path d="M8440 4606 c0 -2 7 -7 16 -10 8 -3 12 -2 9 4 -6 10 -25 14 -25 6z"/>
<path d="M8495 4580 c3 -6 0 -10 -7 -10 -8 0 -6 -5 5 -11 10 -6 21 -8 24 -5 4
3 0 6 -8 6 -11 0 -12 2 -1 9 11 7 10 9 -3 14 -9 4 -13 3 -10 -3z"/>
<path d="M8574 4534 c3 -16 24 -34 41 -33 6 0 -1 6 -14 13 -16 9 -20 15 -11
18 11 3 10 6 -2 10 -11 5 -15 2 -14 -8z"/>
<path d="M8656 4498 c5 -8 1 -9 -12 -4 -14 5 -16 4 -7 -4 7 -8 17 -9 28 -3 16
9 16 10 1 16 -12 5 -15 3 -10 -5z"/>
<path d="M8693 4475 c0 -8 4 -12 9 -9 5 3 6 10 3 15 -9 13 -12 11 -12 -6z"/>
<path d="M8715 4461 c-9 -15 15 -25 28 -12 9 9 7 10 -7 5 -13 -5 -17 -4 -12 4
4 7 5 12 2 12 -3 0 -7 -4 -11 -9z"/>
<path d="M8755 4441 c-7 -12 31 -34 44 -27 5 3 12 -1 15 -10 3 -8 11 -12 17
-9 5 4 17 -1 25 -11 14 -18 14 -18 5 3 -11 22 -45 39 -70 34 -7 -1 -10 2 -6 8
4 7 0 8 -11 4 -12 -4 -15 -3 -10 5 4 7 5 12 2 12 -3 0 -7 -4 -11 -9z"/>
<path d="M8890 4366 c8 -8 33 -24 55 -36 22 -12 60 -33 85 -47 37 -20 40 -21
20 -4 -14 11 -51 34 -82 51 -32 17 -60 35 -63 40 -4 6 -11 10 -18 10 -7 0 -6
-5 3 -14z"/>
<path d="M9099 4243 c13 -10 43 -28 65 -41 23 -13 30 -15 17 -5 -13 10 -43 28
-65 41 -23 13 -30 15 -17 5z"/>
<path d="M9382 4074 c15 -15 30 -26 33 -23 2 3 -10 16 -28 29 l-32 23 27 -29z"/>
<path d="M9358 4043 c7 -3 16 -2 19 1 4 3 -2 6 -13 5 -11 0 -14 -3 -6 -6z"/>
<path d="M9278 4033 c7 -3 16 -2 19 1 4 3 -2 6 -13 5 -11 0 -14 -3 -6 -6z"/>
<path d="M9218 4023 c7 -3 16 -2 19 1 4 3 -2 6 -13 5 -11 0 -14 -3 -6 -6z"/>
<path d="M9128 4013 c6 -2 18 -2 25 0 6 3 1 5 -13 5 -14 0 -19 -2 -12 -5z"/>
<path d="M9078 4003 c7 -3 16 -2 19 1 4 3 -2 6 -13 5 -11 0 -14 -3 -6 -6z"/>
<path d="M8998 3993 c7 -3 16 -2 19 1 4 3 -2 6 -13 5 -11 0 -14 -3 -6 -6z"/>
<path d="M8948 3983 c7 -3 16 -2 19 1 4 3 -2 6 -13 5 -11 0 -14 -3 -6 -6z"/>
</g>
</svg>
