<?xml version="1.0" standalone="no"?>
<!DOCTYPE svg PUBLIC "-//W3C//DTD SVG 20010904//EN"
 "http://www.w3.org/TR/2001/REC-SVG-20010904/DTD/svg10.dtd">
<svg version="1.0" xmlns="http://www.w3.org/2000/svg"
 width="1280.000000pt" height="640.000000pt" viewBox="0 0 1280.000000 640.000000"
 preserveAspectRatio="xMidYMid meet">
<metadata>
Created by potrace 1.15, written by Peter Selinger 2001-2017
</metadata>
<g transform="translate(0.000000,640.000000) scale(0.100000,-0.100000)"
fill="#000000" stroke="none">
<path d="M4880 5890 c-10 -19 -21 -20 -211 -20 -195 0 -200 -1 -223 -23 -19
-19 -24 -38 -30 -108 -7 -90 2 -134 31 -156 14 -11 -42 -13 -285 -13 -339 0
-361 -3 -381 -60 -7 -21 -11 -119 -11 -271 l0 -238 32 -24 32 -25 -185 -1
c-220 -1 -557 -17 -689 -32 -219 -25 -431 -110 -617 -246 -224 -165 -598 -465
-853 -682 -172 -148 -434 -409 -484 -483 -31 -46 -46 -59 -72 -64 -60 -11
-130 -115 -210 -313 -66 -162 -95 -266 -101 -363 -6 -86 -5 -87 23 -116 21
-20 44 -31 77 -36 l47 -7 -25 -43 c-14 -24 -25 -55 -25 -69 l0 -27 -142 -1
c-156 0 -207 -11 -223 -47 -9 -21 -15 -22 -130 -22 -144 0 -174 -13 -207 -87
-27 -62 -23 -214 9 -285 22 -47 62 -78 103 -78 15 0 20 -6 20 -25 0 -36 59
-90 113 -104 28 -6 134 -11 269 -11 l223 0 23 -44 c52 -98 180 -193 292 -217
115 -25 168 21 271 237 157 330 323 513 584 644 113 57 283 111 339 109 11 0
-4 -7 -34 -16 -30 -8 -92 -32 -138 -53 -308 -144 -518 -399 -604 -733 -28
-107 -30 -334 -5 -445 85 -372 364 -640 746 -718 124 -25 333 -16 456 20 401
117 711 460 775 859 18 110 8 322 -19 422 -77 279 -289 518 -552 621 -38 15
-68 29 -66 30 6 6 147 -36 228 -67 163 -63 325 -195 428 -350 126 -188 189
-414 207 -741 l7 -128 641 0 c1270 0 4383 2 4469 4 l89 1 33 130 c140 549 427
910 843 1059 333 119 768 92 1077 -67 250 -129 426 -339 518 -617 41 -124 54
-184 70 -322 15 -125 22 -132 134 -124 106 8 286 83 423 176 l55 38 33 106 32
106 253 0 c223 0 257 3 293 19 53 24 108 90 125 149 18 62 18 201 0 235 -32
59 -155 87 -382 87 l-130 0 2 258 c2 244 1 259 -19 305 -74 166 -284 295 -612
376 -515 127 -1429 242 -2420 306 -140 9 -258 20 -261 23 -4 4 -14 31 -24 60
-20 62 -37 72 -126 72 l-60 0 -302 248 c-481 395 -830 669 -1042 817 -38 27
-88 67 -110 89 -70 71 -225 120 -444 141 -127 12 -585 31 -941 38 -63 2 0 4
141 5 318 3 301 -5 310 139 11 155 10 412 -1 433 -19 36 -62 40 -449 41 -207
0 -370 3 -363 6 28 11 42 62 42 153 0 83 -2 93 -25 115 l-24 25 -266 0 c-252
0 -268 1 -292 20 -14 11 -41 20 -59 20 -23 0 -37 -6 -44 -20z"/>
<path d="M10113 2490 c-432 -48 -795 -364 -916 -798 -29 -105 -32 -392 -4
-492 58 -214 180 -397 350 -526 79 -60 220 -127 322 -155 114 -30 311 -37 429
-14 417 78 746 386 853 798 23 87 26 123 26 242 0 216 -45 370 -157 539 -192
288 -543 446 -903 406z"/>
<path d="M882 1428 c-16 -16 -15 -63 3 -175 19 -115 29 -143 54 -143 35 0 41
21 26 87 -8 33 -17 91 -20 129 -4 38 -8 79 -11 92 -5 24 -32 30 -52 10z"/>
<path d="M1036 1424 c-23 -61 27 -311 91 -456 21 -46 30 -58 49 -58 35 0 37
30 8 96 -35 78 -71 223 -79 315 -9 111 -12 119 -39 119 -13 0 -27 -7 -30 -16z"/>
<path d="M1190 1425 c-27 -33 18 -287 76 -429 33 -82 104 -204 122 -211 17 -6
42 12 42 31 0 7 -16 39 -35 71 -72 118 -130 305 -143 458 -6 81 -9 90 -28 93
-11 2 -27 -4 -34 -13z"/>
<path d="M9033 1223 c-17 -17 -18 -29 -12 -111 12 -150 64 -316 141 -452 36
-62 47 -75 68 -75 38 0 36 33 -5 101 -70 117 -127 299 -140 456 -8 87 -23 110
-52 81z"/>
<path d="M8710 1211 c-7 -15 -7 -45 0 -109 21 -169 48 -229 86 -190 15 14 15
22 4 70 -8 29 -18 96 -24 148 -10 86 -13 95 -33 98 -14 2 -26 -4 -33 -17z"/>
<path d="M8866 1214 c-10 -26 15 -215 40 -302 31 -106 68 -194 87 -206 20 -13
47 0 47 22 0 11 -11 44 -24 73 -36 82 -64 193 -77 304 -6 55 -13 106 -15 113
-5 17 -51 15 -58 -4z"/>
</g>
</svg>
