<?xml version="1.0" standalone="no"?>
<!DOCTYPE svg PUBLIC "-//W3C//DTD SVG 20010904//EN"
 "http://www.w3.org/TR/2001/REC-SVG-20010904/DTD/svg10.dtd">
<svg version="1.0" xmlns="http://www.w3.org/2000/svg"
 width="1280.000000pt" height="640.000000pt" viewBox="0 0 1280.000000 640.000000"
 preserveAspectRatio="xMidYMid meet">
<metadata>
Created by potrace 1.15, written by Peter Selinger 2001-2017
</metadata>
<g transform="translate(0.000000,640.000000) scale(0.100000,-0.100000)"
fill="#000000" stroke="none">
<path d="M5500 5054 c-149 -8 -448 -34 -605 -54 -281 -35 -1028 -168 -1097
-195 -10 -4 -18 -3 -18 2 0 20 -308 -59 -316 -82 -3 -7 -1 -30 5 -51 12 -44 6
-57 -14 -30 -13 17 -25 15 -272 -59 -142 -42 -379 -113 -528 -157 -148 -44
-301 -89 -338 -100 -55 -17 -68 -24 -64 -38 4 -15 -32 -28 -237 -92 -213 -66
-250 -75 -315 -74 -50 1 -76 5 -78 14 -3 6 2 12 11 12 10 0 16 9 16 23 0 21
11 27 103 55 56 17 137 35 180 41 43 5 81 12 84 15 13 12 -86 5 -192 -14 -60
-11 -152 -25 -204 -30 -51 -6 -96 -12 -101 -15 -4 -2 -3 -25 3 -50 9 -37 14
-44 29 -39 10 3 18 2 18 -3 0 -16 -278 -104 -502 -158 -125 -30 -233 -58 -240
-60 -8 -3 -32 10 -55 30 l-41 35 -104 0 c-125 0 -196 18 -357 89 -62 28 -119
51 -127 51 -24 0 -15 -28 21 -64 78 -78 237 -168 383 -215 l86 -28 -26 -17
c-23 -15 -28 -15 -79 3 -87 29 -193 87 -255 137 -44 36 -58 43 -65 33 -22 -36
-6 -76 67 -167 27 -33 67 -95 89 -139 l41 -78 -87 -115 c-96 -129 -157 -223
-248 -387 -88 -157 -90 -207 -16 -503 13 -52 30 -154 39 -226 21 -174 43 -235
91 -254 13 -6 -11 -9 -68 -9 l-88 -1 3 -72 3 -73 65 3 c43 2 129 -8 255 -32
287 -52 622 -104 795 -121 227 -23 544 -32 575 -15 19 10 64 12 202 6 l177 -7
30 -37 c69 -87 259 -242 296 -242 5 0 10 -4 10 -9 0 -5 -449 -11 -1077 -14
-1074 -4 -1153 -7 -1153 -38 0 -20 59 -30 253 -39 114 -5 1746 -12 3747 -14
3467 -6 4874 -13 7150 -37 1133 -12 1339 -9 1416 22 l29 11 -30 13 c-95 40
-930 75 -1809 75 l-541 0 64 38 c36 20 101 72 147 115 l82 77 166 0 c184 0
177 3 151 -70 -8 -23 -15 -46 -15 -49 0 -8 205 11 365 34 108 15 698 66 1005
86 171 11 223 25 265 69 l29 30 -23 48 -23 48 17 229 c16 228 15 303 -6 479
-13 107 -33 151 -91 201 -99 85 -382 238 -643 348 -285 120 -277 115 -425 261
-74 74 -144 136 -155 140 -11 3 -108 24 -215 46 -625 131 -910 168 -1685 220
-198 13 -317 25 -351 36 -43 14 -74 15 -203 8 -128 -8 -157 -7 -181 6 -22 11
-27 19 -20 30 12 18 13 60 2 60 -4 0 -13 -14 -19 -31 -7 -17 -16 -29 -20 -26
-294 174 -1141 651 -1538 866 -305 166 -379 193 -649 236 -243 39 -693 62
-956 49z m479 -2930 c8 -7 -143 -2 -199 6 -36 5 -11 6 70 3 69 -3 127 -7 129
-9z m229 -11 c-26 -2 -71 -2 -100 0 -29 2 -8 3 47 3 55 0 79 -1 53 -3z m-3281
-349 c72 -6 82 -9 92 -30 9 -22 8 -24 -27 -31 -57 -12 -201 -9 -262 6 -30 8
-77 24 -105 37 l-50 22 135 1 c74 1 172 -2 217 -5z m223 -14 c-19 -13 -30 -13
-30 0 0 6 10 10 23 10 18 0 19 -2 7 -10z m702 -6 l76 -7 6 -38 c5 -31 11 -40
34 -46 30 -7 1177 11 1712 28 384 13 1324 7 1710 -11 135 -6 382 -17 550 -26
168 -8 423 -17 567 -21 283 -7 316 -2 334 44 l9 23 202 0 203 0 65 -61 c36
-33 99 -83 140 -111 l75 -50 -244 6 c-134 3 -1536 6 -3115 7 -2225 0 -2867 3
-2852 12 109 68 173 117 236 181 l75 76 71 0 c39 0 105 -3 146 -6z m6288 -53
c0 -18 -187 -28 -265 -13 -29 5 0 8 105 12 80 3 148 7 153 8 4 1 7 -2 7 -7z"/>
<path d="M2805 4543 c-62 -7 -206 -36 -201 -40 2 -2 32 1 66 8 51 10 63 10 70
-1 7 -11 17 -10 57 5 50 18 78 36 53 34 -8 -1 -28 -4 -45 -6z"/>
<path d="M2568 4493 c7 -3 16 -2 19 1 4 3 -2 6 -13 5 -11 0 -14 -3 -6 -6z"/>
<path d="M2528 4483 c7 -3 16 -2 19 1 4 3 -2 6 -13 5 -11 0 -14 -3 -6 -6z"/>
<path d="M2470 4473 c-8 -3 -52 -19 -98 -36 -46 -16 -81 -31 -80 -33 2 -2 53
14 113 36 61 21 103 39 95 39 -8 0 -22 -3 -30 -6z"/>
<path d="M2172 4358 c-51 -22 -91 -42 -89 -44 3 -4 188 73 196 82 11 11 -22
-1 -107 -38z"/>
<path d="M2040 4300 c-8 -5 -10 -10 -5 -10 6 0 17 5 25 10 8 5 11 10 5 10 -5
0 -17 -5 -25 -10z"/>
</g>
</svg>
